<?xml version="1.0" encoding="UTF-8"?> <svg xmlns="http://www.w3.org/2000/svg" xmlns:xlink="http://www.w3.org/1999/xlink" width="585px" height="551px" viewBox="0 0 585 551" version="1.1"><title>46FDDFC9-4B2F-46EF-8C24-22C81B3C954B</title><defs><linearGradient x1="39.516107%" y1="67.6378515%" x2="54.5465793%" y2="20.5520266%" id="linearGradient-1"><stop stop-color="#6D6AFE" offset="0%"></stop><stop stop-color="#3FB0F7" offset="100%"></stop></linearGradient><linearGradient x1="48.6619695%" y1="54.6202644%" x2="54.5684545%" y2="34.185356%" id="linearGradient-2"><stop stop-color="#6D6AFE" offset="0%"></stop><stop stop-color="#3FB0F7" offset="100%"></stop></linearGradient><linearGradient x1="48.2566617%" y1="-23.9861279%" x2="50.3632094%" y2="68.925978%" id="linearGradient-3"><stop stop-color="#FD70CB" offset="0%"></stop><stop stop-color="#6E4DFD" offset="100%"></stop></linearGradient><linearGradient x1="46.1739827%" y1="57.4435975%" x2="59.5854753%" y2="31.3331611%" id="linearGradient-4"><stop stop-color="#6D6AFE" offset="0%"></stop><stop stop-color="#3FB0F7" offset="100%"></stop></linearGradient><linearGradient x1="49.8961666%" y1="4.49384899%" x2="50.0490642%" y2="76.884776%" id="linearGradient-5"><stop stop-color="#FD90DA" offset="0%"></stop><stop stop-color="#8E6DFD" offset="100%"></stop></linearGradient><linearGradient x1="49.2460497%" y1="4.22518162%" x2="50.4461685%" y2="76.5400769%" id="linearGradient-6"><stop stop-color="#FD90DA" offset="0%"></stop><stop stop-color="#8E6DFD" offset="100%"></stop></linearGradient><linearGradient x1="59.9627324%" y1="29.4518401%" x2="45.9054883%" y2="58.4408656%" id="linearGradient-7"><stop stop-color="#FD90DA" offset="0%"></stop><stop stop-color="#8E6DFD" offset="100%"></stop></linearGradient><linearGradient x1="75.1449181%" y1="50%" x2="-53.4793981%" y2="9.24142319%" id="linearGradient-8"><stop stop-color="#485AF4" offset="0%"></stop><stop stop-color="#5D00A2" offset="100%"></stop></linearGradient><linearGradient x1="50%" y1="0%" x2="50%" y2="100%" id="linearGradient-9"><stop stop-color="#FFFFFF" offset="0%"></stop><stop stop-color="#FFFFFF" offset="100%"></stop></linearGradient><linearGradient x1="49.4787272%" y1="8.82446217%" x2="50.5048465%" y2="79.9280546%" id="linearGradient-10"><stop stop-color="#FD70CB" offset="0%"></stop><stop stop-color="#6E4DFD" offset="100%"></stop></linearGradient><linearGradient x1="47.7224599%" y1="67.5143278%" x2="52.3203895%" y2="32.1866885%" id="linearGradient-11"><stop stop-color="#0069DD" offset="0%"></stop><stop stop-color="#1C8EF4" offset="100%"></stop></linearGradient><linearGradient x1="53.0025425%" y1="46.6250946%" x2="66.828548%" y2="31.0475629%" id="linearGradient-12"><stop stop-color="#6D6AFE" offset="0%"></stop><stop stop-color="#3FB0F7" offset="100%"></stop></linearGradient><linearGradient x1="49.6937901%" y1="49.3245889%" x2="44.6050941%" y2="56.8813626%" id="linearGradient-13"><stop stop-color="#FF8A78" offset="0%"></stop><stop stop-color="#FFA799" offset="100%"></stop></linearGradient><linearGradient x1="46.9422233%" y1="72.8341144%" x2="49.8886276%" y2="49.4003513%" id="linearGradient-14"><stop stop-color="#FFB89E" offset="0%"></stop><stop stop-color="#FFA799" offset="100%"></stop></linearGradient><linearGradient x1="53.7513531%" y1="85.3378921%" x2="43.2845517%" y2="3.65048874%" id="linearGradient-15"><stop stop-color="#965CF2" offset="0%"></stop><stop stop-color="#FF8ADC" offset="100%"></stop></linearGradient><linearGradient x1="33.8092473%" y1="76.3258605%" x2="73.6919977%" y2="47.5038186%" id="linearGradient-16"><stop stop-color="#965CF2" offset="0%"></stop><stop stop-color="#FF8ADC" offset="100%"></stop></linearGradient><linearGradient x1="51.1497783%" y1="44.723153%" x2="57.6981332%" y2="58.768265%" id="linearGradient-17"><stop stop-color="#FFB89E" offset="0%"></stop><stop stop-color="#FFA799" offset="100%"></stop></linearGradient><linearGradient x1="66.6613227%" y1="63.2121011%" x2="29.718792%" y2="16.9958571%" id="linearGradient-18"><stop stop-color="#965CF2" offset="0%"></stop><stop stop-color="#FF8ADC" offset="100%"></stop></linearGradient><linearGradient x1="50.6988416%" y1="86.1125985%" x2="49.1415082%" y2="25.762465%" id="linearGradient-19"><stop stop-color="#965CF2" offset="0%"></stop><stop stop-color="#FF8ADC" offset="100%"></stop></linearGradient><linearGradient x1="50.4797441%" y1="46.6267452%" x2="61.098081%" y2="77.8777188%" id="linearGradient-20"><stop stop-color="#FF8A78" offset="0%"></stop><stop stop-color="#FFA799" offset="100%"></stop></linearGradient><linearGradient x1="60.433101%" y1="13.2025335%" x2="45.3697843%" y2="81.9195784%" id="linearGradient-21"><stop stop-color="#5A2D68" offset="0%"></stop><stop stop-color="#22043D" offset="100%"></stop></linearGradient><linearGradient x1="47.709647%" y1="67.5224128%" x2="52.3278997%" y2="32.1871821%" id="linearGradient-22"><stop stop-color="#1C8EF4" offset="0%"></stop><stop stop-color="#00CFDD" offset="100%"></stop></linearGradient><linearGradient x1="61.8094735%" y1="61.7454032%" x2="24.7634756%" y2="24.8846333%" id="linearGradient-23"><stop stop-color="#6D6AFE" offset="0%"></stop><stop stop-color="#3FB0F7" offset="100%"></stop></linearGradient><linearGradient x1="49.2273409%" y1="4.20778116%" x2="50.4415195%" y2="76.5494552%" id="linearGradient-24"><stop stop-color="#FD90DA" offset="0%"></stop><stop stop-color="#8E6DFD" offset="100%"></stop></linearGradient><linearGradient x1="61.8904955%" y1="61.7455191%" x2="24.568008%" y2="24.8847403%" id="linearGradient-25"><stop stop-color="#6D6AFE" offset="0%"></stop><stop stop-color="#3FB0F7" offset="100%"></stop></linearGradient><linearGradient x1="49.2302912%" y1="4.19605829%" x2="50.4458679%" y2="76.5377323%" id="linearGradient-26"><stop stop-color="#FD90DA" offset="0%"></stop><stop stop-color="#8E6DFD" offset="100%"></stop></linearGradient><linearGradient x1="65.8114601%" y1="63.9408182%" x2="20.04108%" y2="23.6684056%" id="linearGradient-27"><stop stop-color="#6D6AFE" offset="0%"></stop><stop stop-color="#3FB0F7" offset="100%"></stop></linearGradient><linearGradient x1="46.3540249%" y1="67.876236%" x2="53.7518748%" y2="31.6273383%" id="linearGradient-28"><stop stop-color="#1C8EF4" offset="0%"></stop><stop stop-color="#00CFDD" offset="100%"></stop></linearGradient></defs><g id="Page-1" stroke="none" stroke-width="1" fill="none" fill-rule="evenodd"><g id="Product-Design-Services" transform="translate(-784.000000, -214.000000)"><g id="product-2" transform="translate(784.000000, 214.299039)"><path d="M297.981261,14.6476966 C355.783646,59.1525276 429.863714,94.025716 520.221465,119.267262 C655.758092,157.129581 540.153322,267.727407 510.255537,449.067986 C480.357751,630.408566 210.839925,515.865257 162.724051,491.932201 C130.646802,475.976831 86.7404631,446.845076 31.005035,404.536936 C-2.89451842,382.029979 -10.131827,332.763465 14.9382099,295.010794 L188.662565,33.5771575 C213.732602,-4.14658505 264.081707,-7.83033094 297.981261,14.6476966 Z" id="Path" fill="#F3F8FF" opacity="0.0719249637"></path><path d="M496.358862,311.405518 C495.141008,319.091132 481.976585,319.842357 469.653062,317.762041 C465.187597,317.010815 451.530233,312.734609 451.211272,316.981922 C450.950303,318.513266 456.111684,323.396232 461.650021,328.452557 C466.57943,332.988803 481.570634,344.257185 476.728214,353.647503 C472.349739,362.199915 449.964421,349.746909 443.324217,344.719477 C420.503951,327.556865 419.750041,333.451095 438.220828,351.567186 C445.614942,358.848294 452.13916,368.932051 454.023935,374.970748 C454.951823,378.033437 455.009816,380.807192 451.443244,381.211698 C447.354734,381.702884 439.264703,379.246955 427.318135,375.86644 C399.974411,368.151933 377.908055,353.791969 348.621564,386.903675 C350.8253,346.94426 354.739831,314.814925 358.741352,278.004878 C359.640244,269.799185 360.713115,261.160092 361.988963,253.156652 C363.786747,241.859377 366.01948,231.77562 368.745153,225.823603 C369.340216,224.470437 370.058466,223.174452 370.890896,221.951902 L370.948889,221.894116 C375.182382,215.999885 378.574975,221.605183 378.487986,236.369652 C378.458989,242.841749 378.28501,249.053805 378.082034,256.190447 C377.792069,266.216417 378.024041,272.544047 379.183902,272.775194 C380.343763,273.00634 382.170544,265.176259 386.085075,247.117955 C391.101474,223.801073 398.72756,194.994466 404.90382,198.086048 C406.904581,199.097313 408.557383,206.147275 409.340289,224.436725 C410.210184,257.115032 414.414681,234.144869 419.837031,218.542495 C422.736684,209.556683 428.94194,180.692289 436.53903,188.34901 C439.728647,191.527272 438.336814,204.211425 436.771002,214.006249 C436.394047,216.231032 436.046089,218.340242 435.69813,220.131625 C435.350172,221.923009 435.234186,222.847594 435.03121,224.061112 C432.537509,239.750167 435.78512,235.271708 441.96138,222.125262 C444.977019,215.797632 448.021654,209.643362 451.385251,205.511622 C462.983861,191.209446 464.665659,203.749132 462.635903,216.491071 C462.432927,217.849056 462.171958,219.20704 461.881993,220.536131 C460.809122,225.36131 459.562271,229.92645 459.011337,233.364751 C458.112445,238.912262 459.040333,241.628231 465.361576,238.10325 C468.853511,236.220028 472.591148,234.829482 476.467245,233.97151 C486.268071,231.660047 491.139487,233.306964 494.358102,242.119416 C495.040793,244.166853 495.200253,246.351621 494.822046,248.47594 C493.778171,255.005822 488.61679,262.37361 482.034578,267.978908 C476.032297,273.09302 470.261989,277.080293 469.537076,281.761006 C469.401661,282.545909 469.411489,283.348875 469.566072,284.130255 C470.75493,289.908912 479.946828,294.734091 486.992984,298.808045 C494.03914,302.881998 496.967789,307.533817 496.358862,311.405518 Z" id="Path" fill="#A8C9FC" opacity="0.2"></path><path d="M490.859162,243.352525 C470.07473,255.62494 450.62561,271.11018 432.337632,288.476804 C443.136248,291.68963 453.122064,295.655009 461.888683,300.343997 C451.061038,297.160116 439.885052,294.149901 429.20255,291.487019 C418.810334,301.559661 408.795488,312.240135 399.128986,323.267941 C395.47139,327.435931 391.755737,331.86442 387.982027,336.49552 C401.915725,342.97906 414.020625,351.372928 425.051469,359.39052 C411.204857,353.022758 398.577443,345.873497 384.96306,340.229344 C371.493818,356.959193 357.734292,375.454647 345.832592,390.621499 C354.773381,371.228769 371.726047,346.481329 387.807856,326.943877 C389.72374,309.721974 393.845792,274.525616 398.722586,259.99554 C397.096988,272.441621 394.600534,303.20949 392.916879,320.894503 L395.993904,317.392234 C406.647377,305.409263 421.945416,291.400186 438.114311,278.462051 L438.114311,278.288384 C440.697851,264.916084 445.226302,251.833227 449.261269,240.979086 C446.880929,252.875224 443.920018,263.960919 441.800935,275.509725 C458.9568,262.108479 476.722265,250.154453 490.859162,243.352525 Z" id="Path" fill="#A8C8FC" opacity="0.4"></path><path d="M422.487475,116.060348 C429.9087,106.968393 463.116518,90.20329 464.646965,108.068693 C466.177412,125.934096 439.842169,108.589888 422.487475,116.060348 Z M383.995282,229.825615 C384.042559,228.957259 384.032913,228.086728 383.966406,227.21964 C399.184249,217.11425 427.107693,225.916653 421.159162,209.556924 C415.470518,193.863166 391.041115,214.305589 383.822024,225.858742 C382.176071,211.815435 370.27901,184.365837 358.353072,195.31093 C345.734101,206.921994 373.599792,212.076033 382.840228,227.596059 L382.522588,228.26203 L383.013486,227.885611 C383.380716,228.51115 383.708619,229.15908 383.995282,229.825615 L383.995282,229.825615 Z M389.25078,198.119591 C388.999843,197.386347 388.700801,196.670554 388.355613,195.976901 L387.98022,196.208543 C388.059238,196.043963 388.156076,195.8886 388.268984,195.745259 C380.385737,179.501351 353.155326,171.886114 366.727217,161.491171 C379.548322,151.646379 388.93314,179.877769 389.424039,194.036898 C397.538297,183.17867 423.815787,164.792072 428.118365,181.007025 C432.594202,197.830038 405.479297,186.537482 389.424039,195.339885 C389.430375,196.269354 389.372484,197.198147 389.25078,198.119591 L389.25078,198.119591 Z M396.989646,167.369092 C397.262549,166.52427 397.484337,165.663698 397.653802,164.792072 C414.97962,158.248181 440.419696,174.752686 438.918125,157.176836 C437.416554,139.600985 406.807609,154.744593 397.769308,164.01028 C399.992788,150.22757 395.690209,119.795579 381.165399,127.38186 C365.283399,135.634113 394.01538,148.663985 396.989646,167.369092 L396.989646,167.369092 Z M470.017968,72.8301264 C477.439194,63.7092155 510.647011,46.9730679 512.177459,64.8384711 C513.707906,82.7038744 487.372663,65.3307108 470.017968,72.8301264 Z M442.007896,93.38837 C450.151031,84.9334304 462.85663,49.8685952 444.953285,50.4477006 C427.04994,51.0268061 447.3789,75.233414 442.007896,93.38837 Z M423.411518,114.960048 C429.129038,104.680926 432.420943,67.5602668 415.268384,72.7143053 C398.115824,77.8683438 423.960169,96.0232998 423.411518,114.960048 Z M408.078169,140.411733 C406.258958,121.56185 378.364392,106.794661 394.737289,99.5268878 C411.110187,92.2591143 412.467376,129.495595 408.078169,140.411733 Z M409.088842,138.761282 C426.443536,131.261867 452.807656,148.63503 451.277209,130.769627 C449.746761,112.904224 416.510067,129.640371 409.088842,138.761282 Z M441.112729,94.6334467 C458.467423,87.1629864 484.831543,104.53615 483.272219,86.6417914 C481.712896,68.747433 448.533954,85.5414911 441.112729,94.6334467 L441.112729,94.6334467 Z" id="Shape" fill="#A8C9FC" opacity="0.2"></path><path d="M383.871854,212.318601 C384.974972,205.735582 386.310324,199.162187 387.877911,192.598417 C385.55556,185.409068 379.720651,171.116987 368.021803,163.465671 C380.359297,168.316317 386.02003,183.474584 388.110147,191.645612 C390.447039,181.883386 393.345063,172.262533 396.789936,162.830468 C395.919055,155.814356 392.870968,139.703283 382.15912,129.68439 C393.974085,136.87374 396.644789,153.879872 397.10926,161.964281 C400.285491,153.293911 403.998688,144.827565 408.227519,136.613884 C407.908196,129.944246 406.050314,112.966987 395.65779,101.966416 C407.443725,110.166317 408.721019,128.356237 408.546843,135.97868 C413.061052,127.28787 418.274295,118.97427 424.135629,111.119122 C424.658158,104.362866 424.890394,87.4433527 416.036427,75.316739 C426.632157,84.9025384 425.674187,102.948094 424.542041,110.59941 C430.291377,102.963608 436.797616,95.9217455 443.962708,89.5799465 C446.227001,82.9969276 450.581411,66.9724738 445.240001,53.2289783 C452.874733,64.9513716 447.649441,81.7265205 444.572325,89.0602345 C454.96485,80.02302 466.750785,72.7181789 480.046249,67.6365503 C484.031863,65.8164488 488.222716,64.4787286 492.52889,63.6520915 L494.328713,63.1901253 L493.370743,63.5077271 C499.031476,62.5837946 505.040561,62.7859048 510.38197,65.4133378 C500.221681,62.8147777 489.509833,65.1534818 481.875101,67.8097876 C467.795843,73.9597132 455.661555,82.390597 445.269031,92.2651252 C452.003851,88.396158 468.521578,80.8892067 481.352572,87.1546238 C466.344374,83.3434023 450.174999,90.244023 444.427178,93.0735662 C437.997107,99.3291549 432.139123,106.141117 426.922451,113.428953 C433.860477,109.531113 450.029852,102.370637 462.628611,108.520562 C448.230029,104.853705 432.75736,111.090249 426.457981,114.09303 C421.398197,121.195199 416.848634,128.643657 412.843193,136.382901 C419.403837,132.571679 436.182829,124.804872 449.15897,131.156908 C434.470095,127.403432 418.620044,133.957578 412.581929,136.902613 C408.378509,145.084722 404.675368,153.511674 401.492699,162.137518 C408.66296,158.181933 424.396894,151.454549 436.734388,157.488983 C422.858336,153.937618 407.966255,159.596704 401.260464,162.714976 C397.720557,172.347892 394.72584,182.17043 392.29038,192.136451 C398.763936,186.997076 412.930282,177.902116 425.964481,181.655592 C411.827165,180.587295 398.241406,188.556213 392.116203,192.8294 C390.432498,199.81664 389.097146,206.457404 388.052088,212.549584 C387.44247,216.187568 386.890912,219.969917 386.368383,223.810011 C392.348439,218.093179 405.672932,207.727811 419.055485,210.355244 C404.83108,210.528482 392.000086,219.710061 386.281294,224.474087 C385.004001,234.348616 384.133119,244.771729 383.668649,255.425825 L379.372298,267.003854 C379.477481,252.738649 380.398232,238.490936 382.130091,224.329723 C379.169092,217.342484 372.085919,203.656734 359.777454,197.073715 C372.463301,200.798318 379.430357,215.321381 382.246208,223.319172 C382.768737,219.30584 383.320296,215.61011 383.871854,212.318601 Z" id="Path" fill="#A8C8FC" opacity="0.4"></path><path d="M363.790484,457.63081 L257.038037,396.630092 C253.076746,394.836804 247.264926,393.130288 243.361464,395.502056 L233.44378,401.547173 C231.419763,402.761981 224.856165,406.811341 229.251173,409.212033 C242.204883,416.240565 324.871526,464.572571 338.027637,471.716799 C340.514287,473.076227 344.157517,473.567935 347.974235,473.249771 C351.790953,472.931607 355.72333,471.919267 358.730441,470.039207 L362.691731,467.609591 C365.496441,465.874151 367.057825,463.965167 367.202398,462.171878 C367.346971,460.37859 366.219304,458.729922 363.790484,457.63081 Z" id="Path" fill="#5F7FFB" opacity="0.2"></path><path d="M143.138317,249.704173 C144.589639,250.971377 146.159577,252.095846 147.826395,253.062014 L149.186517,250.688368 C147.679886,249.794507 146.256214,248.767624 144.93252,247.619996 L143.138317,249.704173 L143.138317,249.704173 Z M131.881141,225.215092 L129.160898,225.41772 L128.755756,219.917808 L131.504937,219.71518 L131.881141,225.215092 L131.881141,225.215092 Z M149.794231,88.2962325 L148.40517,90.6988256 L143.630276,87.9488697 L145.019336,85.5752235 L149.794231,88.2962325 L149.794231,88.2962325 Z M195.228076,114.116872 L194.967627,113.972137 L193.607506,116.37473 L193.867954,116.519465 L195.228076,114.116872 Z M192.565711,112.611632 L191.205589,114.985279 L186.430694,112.26427 L187.790816,109.861677 L192.565711,112.611632 L192.565711,112.611632 Z M185.417838,108.501172 L184.057717,110.874818 L179.253883,108.153809 L180.642943,105.751216 L185.417838,108.501172 L185.417838,108.501172 Z M178.241027,104.390712 L176.880905,106.764358 L172.106011,104.043349 L173.466132,101.640756 L178.241027,104.390712 Z M171.093154,100.280251 L169.704094,102.653897 L164.929199,99.9328882 L166.31826,97.5302951 L171.093154,100.280251 Z M163.916343,96.1697906 L162.556222,98.5434368 L157.781327,95.8224278 L159.141448,93.4198347 L163.916343,96.1697906 L163.916343,96.1697906 Z M156.768471,92.0593301 L155.37941,94.4329763 L150.604516,91.7119673 L151.993576,89.3093742 L156.768471,92.0593301 L156.768471,92.0593301 Z M141.373053,84.9094447 L141.315175,84.9094447 C139.255267,84.6693859 137.168537,84.9789881 135.266976,85.8067987 L136.424526,88.3251794 C137.889497,87.688324 139.499024,87.4583269 141.083665,87.6594006 L141.373053,84.9094447 L141.373053,84.9094447 Z M132.633549,87.543613 C131.124023,88.9726276 129.990783,90.7525156 129.334531,92.725109 L131.939019,93.622463 L132.025835,93.3619409 C132.538742,91.9316512 133.381458,90.642428 134.485629,89.5988432 L132.633549,87.543613 Z M128.611062,95.6197994 C128.418861,96.84595 128.312494,98.0840292 128.292736,99.3250032 L128.292736,101.32234 L131.041917,101.32234 L131.041917,99.3250032 C131.052105,98.2287477 131.148868,97.1350109 131.331305,96.054003 L128.611062,95.6197994 L128.611062,95.6197994 Z M128.321674,104.101243 L131.070856,104.101243 L131.070856,109.630101 L128.292736,109.630101 L128.292736,104.130189 L128.321674,104.101243 Z M128.350613,112.35111 L131.099795,112.35111 L131.099795,117.851022 L128.321674,117.851022 L128.321674,112.35111 L128.350613,112.35111 Z M128.379552,120.600978 L131.128734,120.600978 L131.128734,126.10089 L128.379552,126.10089 L128.379552,120.600978 L128.379552,120.600978 Z M128.408491,128.879793 L131.157672,128.879793 L131.157672,134.408652 L128.408491,134.408652 L128.408491,128.90874 L128.408491,128.879793 Z M128.437429,137.129661 L131.186611,137.129661 L131.186611,142.629573 L128.437429,142.629573 L128.437429,137.129661 Z M128.466368,145.379529 L131.21555,145.379529 L131.21555,150.879441 L128.466368,150.879441 L128.466368,145.379529 L128.466368,145.379529 Z M128.466368,153.658343 L131.244489,153.658343 L131.244489,159.158255 L128.495307,159.158255 L128.495307,153.658343 L128.466368,153.658343 Z M128.495307,161.908211 L131.273427,161.908211 L131.273427,167.408123 L128.524246,167.408123 L128.524246,161.908211 L128.495307,161.908211 Z M128.524246,170.158079 L131.273427,170.158079 L131.273427,175.657991 L128.553184,175.657991 L128.553184,170.158079 L128.524246,170.158079 Z M128.553184,178.436894 L131.302366,178.436894 L131.302366,183.936806 L128.553184,183.936806 L128.553184,178.436894 Z M128.582123,186.686762 L131.331305,186.686762 L131.331305,192.186674 L128.582123,192.186674 L128.582123,186.686762 Z M128.611062,194.965576 L131.360244,194.965576 L131.360244,200.494435 L128.611062,200.494435 L128.611062,194.994523 L128.611062,194.965576 Z M128.640001,203.215444 L131.389182,203.215444 L131.389182,208.715356 L128.640001,208.715356 L128.640001,203.215444 Z M128.668939,211.465312 L131.418121,211.465312 L131.418121,216.965224 L128.668939,216.965224 L128.668939,211.465312 L128.668939,211.465312 Z M129.855428,228.254517 C130.346733,230.090164 130.965598,231.889249 131.707509,233.638641 L134.22518,232.567606 C133.530301,230.931007 132.950124,229.248021 132.488855,227.530844 L129.855428,228.254517 L129.855428,228.254517 Z M132.865059,236.214916 C133.697353,237.917876 134.644888,239.562022 135.701057,241.135889 L137.987219,239.601704 C137.090117,238.154358 136.048322,236.533332 135.353792,234.970199 L132.865059,236.214916 L132.865059,236.214916 Z M137.350566,243.451642 C138.489943,244.968593 139.727305,246.409366 141.054727,247.764731 L143.022562,245.825288 C141.772622,244.566729 140.612239,243.22224 139.549911,241.801668 L137.350566,243.451642 Z" id="Shape" fill="url(#linearGradient-1)"></path><path d="M142.237598,161.810637 L145.245436,160.25016 C146.142003,159.961183 147.269943,160.134569 148.513568,160.828115 C179.054693,178.340134 209.537975,196.459006 240.0791,213.942128 C242.942331,215.618196 245.284974,219.663877 245.284974,222.958217 L245.429581,343.750695 C245.429581,345.253377 244.937915,346.35149 244.128113,346.958342 C243.31831,347.565195 241.727627,348.63441 240.541844,348.778899 C240.063341,348.836974 239.578557,348.746151 239.153611,348.518819 C208.612486,331.0068 178.707635,311.327451 148.16651,293.844329 C145.303279,292.168261 142.960636,288.151478 142.960636,284.82824 L142.237598,161.810637 Z" id="Path" fill="#D0E7FF"></path><path d="M140.378283,164.755311 C140.378283,161.424629 142.723484,160.092356 145.618793,161.772179 C176.19326,179.294463 206.70982,197.453922 237.284286,215.005169 C240.150643,216.656029 242.495843,220.710772 242.46689,224.012492 L242.640609,345.104511 C242.611656,348.406231 240.266455,349.738504 237.400099,348.087644 C206.825632,330.536397 176.309072,312.376939 145.734605,294.825692 C142.839296,293.174832 140.523049,289.120088 140.523049,285.818368 L140.378283,164.755311 Z" id="Path" fill="url(#linearGradient-2)"></path><polygon id="Path" fill="#6699FD" points="141.307941 224.248879 243.541264 283.176812 243.570266 300.464269 141.336943 241.449465"></polygon><polygon id="Path" fill="#6699FD" points="141.307941 267.003854 243.541264 325.960744 243.570266 343.219244 141.336943 284.233397"></polygon><path d="M208.242243,244.116 C208.275233,242.595244 207.519987,241.174096 206.266466,240.398176 C205.423719,239.870918 204.527808,239.442324 203.594994,239.120175 L203.594994,240.63054 L205.57077,241.821406 C206.266466,242.228043 206.544745,242.489452 206.544745,243.128453 C206.544745,243.767454 204.374173,244.69691 203.678477,244.842138 L203.678477,246.613913 L208.214415,249.34419 L208.214415,247.543369 L206.377778,246.43964 C206.934334,246.178231 208.242243,245.53923 208.242243,244.116 Z" id="Path" fill="#FFFFFF" opacity="0.8"></path><path d="M233.341388,258.659306 L233.341388,258.289295 C233.33511,257.099931 232.690197,256.004182 231.649457,255.414591 L230.961213,255.016117 C230.129586,254.532256 229.326636,254.10532 228.695746,253.99147 L228.695746,255.499978 L230.760476,256.666937 C231.247981,256.951561 231.62078,257.150798 231.62078,257.691584 L231.62078,257.776971 C231.62078,258.260832 231.391365,258.11852 230.760476,257.805434 L229.297959,257.065411 L229.297959,258.687769 L230.760476,259.598566 C231.334012,259.968577 231.592103,260.139352 231.592103,260.594751 L231.592103,260.7086 C231.592103,261.163999 231.391365,261.078612 230.703122,260.680138 L228.7531,259.541641 L228.7531,261.078612 C229.441343,261.76171 230.359001,262.274033 231.276658,262.814819 L231.563426,262.985593 C232.653144,263.583304 233.341388,263.29868 233.341388,262.046334 L233.341388,261.733247 C233.373939,260.99647 233.105039,260.277919 232.595791,259.740878 C233.14065,259.826265 233.341388,259.427792 233.341388,258.659306 Z" id="Path" fill="#FFFFFF" opacity="0.8"></path><path d="M156.016703,215.843678 C156.016703,216.437317 155.755978,216.348271 155.430071,216.170179 L155.006392,215.962406 C154.623825,215.777431 154.394668,215.406401 154.41976,215.012584 L154.41976,212.163119 C154.41976,212.044392 154.387169,211.539799 154.90862,211.806936 L155.495252,212.133437 C155.836918,212.30163 156.030828,212.643063 155.984112,212.994213 L155.984112,215.843678 L156.016703,215.843678 Z M156.114475,210.560295 L154.45235,209.699519 C153.148723,209.016835 152.464319,209.432382 152.464319,210.827433 L152.464319,214.418946 C152.441671,215.705388 153.208447,216.896002 154.45235,217.505866 L156.114475,218.366642 C157.32033,219.019644 158.004735,218.604097 158.037325,217.327774 L158.037325,213.617534 C158.106903,212.34391 157.355961,211.149948 156.114475,210.560295 L156.114475,210.560295 Z" id="Shape" fill="#FFFFFF" opacity="0.8"></path><polygon id="Path" fill="#FFFFFF" opacity="0.8" points="179.575679 224.248879 178.5227 224.498397 178.494241 225.901938 179.54722 226.338595 179.54722 232.451796 181.283213 233.543439 181.283213 225.340522"></polygon><polygon id="Path" fill="#FFFFFF" opacity="0.8" points="175.676086 207.518671 175.705268 196.365199 169.197666 198.120012"></polygon><polygon id="Path" fill="#FFFFFF" opacity="0.8" points="177.609933 197.294655 177.564583 208.65079 179.378549 209.377583 179.423898 198.021448"></polygon><polygon id="Path" fill="#FFFFFF" opacity="0.8" points="152.463831 188.820785 158.942381 198.224111 158.971433 187.07064"></polygon><polygon id="Path" fill="#FFFFFF" opacity="0.8" points="150.604516 192.908931 152.418482 193.576831 152.463831 182.192163 150.649865 181.493904"></polygon><polygon id="Path" fill="#FFFFFF" opacity="0.8" points="211.991093 216.813231 211.961911 227.966703 218.469514 226.21189"></polygon><polygon id="Path" fill="#FFFFFF" opacity="0.8" points="209.172939 227.270193 210.986904 227.966703 211.032254 216.580285 209.218288 215.883775"></polygon><polygon id="Path" fill="#00CEDC" opacity="0.8" points="191.538759 204.730303 191.509446 215.883775 198.017048 214.103966"></polygon><polygon id="Path" fill="#FFFFFF" opacity="0.8" points="226.836431 236.331807 233.344034 234.551997 226.865613 225.178335"></polygon><polygon id="Path" fill="#FFFFFF" opacity="0.8" points="233.432572 229.825615 233.344034 241.153359 235.159079 241.908542 235.203349 230.55059"></polygon><path d="M140.436206,243.915874 L141.681541,243.044297 L142.086999,245.310396 L142.868954,244.409767 L144.288058,245.746184 L144.809361,247.256916 L146.460155,247.925125 L147.879258,230.755071 L147.618606,248.971016 L148.024065,248.070387 L148.458484,248.883859 L149.008749,246.966391 L149.50109,245.804289 L149.906549,249.493962 L151.151884,251.440483 C151.151884,251.440483 152.455142,253.648476 152.570988,253.357951 C152.686833,253.067425 154.395549,242.347036 154.395549,242.347036 L154.482433,252.312059 L156.770375,238.134417 L156.306994,252.89311 L157.870904,239.035046 L157.870904,253.997107 L159.753388,246.61776 L159.898195,252.021534 L160.853917,248.680491 L161.317298,255.391629 L162.70744,251.208062 L162.968092,258.529304 L164.445118,254.83963 L164.126543,260.069089 L164.010698,263.758762 L164.966421,261.986557 L165.16915,264.659391 C165.16915,264.659391 166.009027,261.957504 166.095911,262.800028 C166.182795,263.642552 166.472408,265.937703 166.472408,265.937703 C166.472408,265.937703 167.39917,262.538555 167.457092,263.032448 C167.515015,263.526341 168.325931,263.816867 168.383854,263.410131 C169.049963,259.6333 169.600228,256.059837 170.411144,252.602584 L169.600228,265.90865 L170.09257,268.029486 L170.845563,259.836668 L171.88817,254.25858 L171.88817,259.691405 L171.048292,268.087591 C170.700757,271.661054 172.032976,261.812241 172.612202,258.267831 C172.612202,258.267831 173.01766,255.798364 173.01766,256.844256 C173.01766,257.890148 172.930777,262.044662 172.930777,262.044662 L172.293628,269.394955 L172.699086,269.569271 L175.537293,243.915874 L174.262996,272.271157 C175.740022,267.535593 176.232364,264.42697 176.869512,259.488038 L176.261325,269.046325 L175.942751,273.084629 L177.188087,266.693069 L178.027964,263.933077 L178.346538,265.937703 L178.954725,264.514128 L179.389145,267.041699 L180.200061,265.734335 L180.692403,267.070752 L180.692403,271.544844 L181.126822,269.917901 L181.213706,271.806317 L182.053584,270.789478 L182.169429,272.06779 L183.356842,273.607575 L184.457371,275.49599 L185.905436,267.62275 L185.702707,275.757463 L187.874804,261.957504 L187.585191,275.670305 C189.699365,267.73896 191.002623,243.07335 190.597165,251.41143 L189.757288,269.278745 L189.960017,269.017272 L190.394436,271.312423 L191.176391,270.411795 L192.595494,271.748212 L193.116798,273.229891 L194.796553,273.927153 L196.186695,256.757098 L195.926043,274.973044 L196.360463,274.072415 L196.765921,274.856834 L197.345146,272.968419 L197.808527,271.806317 L198.213985,275.466937 L199.488282,277.44251 C199.488282,277.44251 200.79154,279.650504 200.878424,279.359978 C200.965308,279.069453 202.702986,268.320011 202.702986,268.320011 L202.818831,278.314087 L205.106773,264.136445 L204.643392,278.895138 L206.207302,265.037074 L206.207302,279.970082 L208.060825,272.619788 L208.234593,278.023561 L209.161354,274.682519 L209.624735,281.393657 L211.043838,277.181038 L211.30449,284.531331 L212.752554,280.841658 L212.43398,286.042064 L212.347096,289.76079 L213.273858,287.988584 L213.476587,290.661418 C213.476587,290.661418 214.316464,287.930479 214.432309,288.773003 C214.548155,289.615527 214.779845,291.93973 214.779845,291.93973 C214.779845,291.93973 215.735568,288.540583 215.764529,289.005423 C215.79349,289.470264 216.633368,289.789842 216.720251,289.383106 C217.386361,285.635328 217.936626,282.032813 218.747542,278.604612 L217.907665,291.910678 L218.400006,294.031514 L219.153,285.838696 L220.195607,280.260607 L220.195607,285.693433 L219.355729,294.089619 C219.008194,297.634029 220.340413,287.785216 220.919639,284.269859 C220.919639,284.269859 221.354058,281.77134 221.354058,282.817231 C221.354058,283.863123 221.238213,288.046689 221.238213,288.046689 L220.630026,295.396983 L221.006523,295.542246 L223.84473,269.917901 L222.599394,298.244133 C224.047459,293.53762 224.568762,290.399946 225.20591,285.490065 L224.568762,295.0193 L224.250188,299.086656 L225.524485,292.695097 L226.335401,289.906052 L226.653975,291.910678 L227.291123,290.487103 L227.696582,293.014675 L228.536459,291.70731 L228.99984,293.043727 L229.057762,297.546872 L229.46322,295.890876 L229.579066,297.779292 L230.418943,296.791505 L230.505827,298.040765 L231.722201,299.58055 L232.793769,301.468965 L234.270795,293.624778 L234.039105,301.759491 L236.211202,287.959532 L235.921589,301.672333 C237.398615,293.711936 238.759795,268.697694 238.933563,277.413458 L239.512789,304.141799 L241.221505,303.212118 L241.54008,305.652532 L242.640609,305.013376 L242.640609,323.665109 L241.453196,321.195643 L240.149938,321.195643 L238.846679,319.510596 L236.993157,340.544638 C236.211202,349.231349 237.195886,323.200269 235.660937,312.770405 L235.05275,326.802784 L233.865337,310.446202 L233.546763,318.813334 L232.648963,309.255047 L231.490511,309.836098 L230.245175,309.952308 L230.042446,311.085358 L229.318414,309.109784 L229.086724,310.852937 L228.797111,308.732101 L228.449575,313.148088 L227.928272,313.903454 L227.20424,311.608303 L226.625014,313.641981 L226.132672,311.492093 L225.698252,313.119036 L225.090065,309.371257 L224.30811,301.498018 L224.30811,316.169553 C224.018497,310.475254 223.728884,306.785581 222.657317,300.335916 L221.991207,330.056669 L220.9486,301.149387 L220.572103,300.858862 L220.687949,308.906417 C220.687949,308.906417 220.514181,313.177141 220.427297,314.223032 C220.340413,315.268924 220.137684,312.305564 220.137684,312.305564 C219.790149,308.092945 219.181961,296.704348 219.268845,300.655494 L219.529497,310.039466 L219.153,315.443239 L218.515852,308.644944 L218.342084,299.58055 L217.733897,301.091282 L217.647013,315.356082 C217.096748,310.940095 216.807135,306.727476 216.401677,302.195279 C216.372716,301.701385 215.5618,301.033177 215.474916,301.439913 C215.388032,301.846648 214.721922,297.372556 214.721922,297.372556 L214.171658,300.074443 C214.026851,300.771704 213.389703,297.082031 213.389703,297.082031 L213.013206,299.493392 L212.231251,296.61719 L212.086445,300.452126 L212.086445,306.001162 L210.927993,300.597389 L210.174999,307.599052 L209.103431,301.730438 L208.234593,307.860525 L207.539522,303.444538 L207.04718,308.615891 L205.71496,299.057604 L204.730276,313.932507 L204.15105,298.273185 L203.629747,313.525771 L202.35545,296.704348 L201.602457,306.524108 C201.602457,306.524108 200.646734,293.799093 200.588811,293.392358 C200.530889,292.985622 199.111785,293.624778 199.111785,293.624778 L197.779566,294.089619 L197.142417,297.256346 L196.765921,295.513193 L196.331501,292.956569 L195.868121,293.276147 L195.549546,291.852573 L194.593824,310.300939 L194.362133,291.562047 L192.740301,290.254683 L192.132114,291.126259 L190.684049,290.777629 L189.988978,288.947318 L189.438714,290.719523 L189.149101,289.964157 L188.68572,314.54261 C188.511952,323.316479 188.888449,297.198241 187.382462,286.79743 L186.774275,300.800757 L185.586862,284.473226 L185.239326,292.811307 L184.370487,283.253019 L183.183074,283.863123 L181.937739,283.950281 L181.763971,285.08333 L181.010977,283.107757 L180.808248,284.850909 L180.518635,282.730074 L180.1711,287.14606 L179.620835,287.930479 L178.896803,285.635328 L178.346538,287.639954 L177.825235,285.490065 L177.419777,287.117008 L176.782628,283.36923 L176.000674,275.49599 L176.000674,290.167525 C175.682099,284.502279 175.421448,280.783553 174.320919,274.362941 L173.654809,304.054642 L172.612202,275.147359 L172.235705,274.856834 L172.351551,282.904389 C172.351551,282.904389 172.177783,287.204166 172.11986,288.250057 C172.061938,289.295949 171.801286,286.303537 171.801286,286.303537 C171.482712,282.090918 170.845563,270.70232 170.961409,274.653466 L171.193099,284.037438 L170.845563,289.441212 L170.208415,282.642916 L170.034647,273.578522 L169.397499,275.089254 L169.339576,289.354054 C168.789312,284.96712 168.470737,280.725448 168.094241,276.193251 C168.036318,275.699358 167.254363,275.031149 167.167479,275.437885 C167.080595,275.84462 166.414486,271.370529 166.414486,271.370529 L165.864221,274.072415 C165.690453,274.798729 165.082266,271.080003 165.082266,271.080003 L164.705769,273.520417 L163.923814,270.644215 L163.779008,274.450098 L163.721085,279.999134 L162.562634,274.624414 L161.838601,281.597024 L160.738072,275.72841 L159.840272,281.858497 L159.174162,277.413458 L158.652859,282.584811 L157.349601,273.026524 L156.364917,287.930479 L155.75673,272.271157 L155.264388,287.523744 L153.990091,270.673267 L153.237097,280.493028 C153.237097,280.493028 152.281375,267.797066 152.194491,267.361277 C152.107607,266.925489 150.717465,267.593698 150.717465,267.593698 L149.385245,268.058538 L148.748097,271.225266 L148.3716,269.511166 L147.966142,266.925489 L147.502761,267.245067 L147.155226,265.821492 L146.228464,284.298911 L145.996774,265.530967 L144.34598,264.223602 L143.737793,265.095179 L142.31869,264.746548 L141.623619,262.945291 L141.073354,264.717496 L140.378283,262.887185 L140.436206,243.915874 Z" id="Path" fill="#4551FB"></path><polygon id="Path" fill="#00CEDC" points="150.604516 216.813231 154.376719 221.862813 154.773793 222.389967 155.170867 222.306732 158.971433 221.529873"></polygon><path d="M230.52974,264.760744 C230.500801,274.104673 230.471862,309.807709 230.442923,344.53021 L231.397902,345.078156 C231.426841,310.355656 231.45578,274.652619 231.484719,265.30869 L230.52974,264.760744 Z M205.902859,330.341281 C205.931798,295.64762 205.960737,259.973423 205.989675,250.629494 L205.034697,250.081547 C205.005758,259.425476 204.976819,295.070834 204.94788,329.764495 L205.902859,330.341281 Z M180.378877,315.489049 C180.407816,280.853066 180.436755,245.294226 180.465694,235.950297 L179.510715,235.402351 C179.481776,244.746279 179.452837,280.27628 179.423898,314.941102 L180.378877,315.489049 Z" id="Shape" fill="#6BB6FF"></path><path d="M154.400617,220.531055 C154.374793,229.841703 154.34897,265.32594 154.323146,299.916584 L155.175332,300.464269 C155.201156,265.873625 155.226979,230.389389 155.252803,221.07874 L154.400617,220.531055 Z" id="Path" fill="#00CEDC"></path><path d="M224.609218,205.659759 C229.79283,208.697566 234.947803,211.706442 240.131415,214.686386 C242.96665,216.364412 245.286388,220.414822 245.286388,223.713012 L245.429581,344.646661 C245.429581,346.151098 244.942723,347.250495 244.140838,347.858057 C243.338953,348.465618 241.763823,349.536083 240.589634,349.680741 L240.532357,349.680741 C239.730472,349.825398 238.728116,349.622878 237.697122,349.015316 L221.258486,339.438992 L221.258486,206.585567 L224.609218,205.659759 Z" id="Path" fill="url(#linearGradient-3)" opacity="0.5" style="mix-blend-mode: multiply;"></path><path d="M366.838408,410.665062 C366.809468,415.852139 364.957307,419.532355 362.005426,421.242062 L357.288205,424.081915 C341.19756,417.185131 347.159201,335.379999 346.175241,312.139575 L351.123983,190.112862 C346.985561,182.810385 330.952796,176.464184 334.686057,161.598427 L287.455962,139.459171 C285.343342,138.039245 230.212624,106.047439 240.110107,100.048976 C241.788628,99.0637211 243.409268,98.0494882 245.058849,97.0932114 C248.70529,94.9198551 253.364631,96.281825 256.779553,98.2523348 L256.779553,98.2523348 L350.776703,152.238506 C360.008566,157.570473 367.243568,170.436743 367.214714,180.752941 L366.838408,410.665062 Z" id="Path" fill="#D0E7FF"></path><path d="M234.64999,110.419632 C234.67893,105.320969 236.444242,101.728729 239.309256,99.9615786 C242.17427,98.1944283 246.544141,98.2813373 251.203406,101.004487 L345.199026,154.974996 C354.314981,160.218507 361.665624,172.994135 361.636769,183.481158 L361.26047,413.326578 C361.231531,423.784632 353.794069,428.014205 344.707054,422.741724 L250.711434,368.771215 C241.59548,363.527703 234.244837,350.752075 234.273691,340.294022 L234.64999,110.419632 Z" id="Path" fill="url(#linearGradient-4)"></path><path d="M348.621564,174.350433 C351.187177,175.840554 353.269852,174.624129 353.269852,171.674297 C353.269852,168.724466 351.217361,165.07519 348.651748,163.554659 C346.086135,162.034127 343.973277,163.280963 343.973277,166.261205 C343.973277,169.241447 346.055951,172.860312 348.621564,174.350433 Z" id="Path" fill="#485AF4"></path><path d="M277.037936,127.527449 C277.037936,126.734005 277.5895,126.440137 278.257183,126.822165 L313.934648,147.187223 C314.645764,147.674038 315.095563,148.46545 315.153894,149.33246 L315.153894,150.889961 C315.153894,151.683405 314.60233,151.977273 313.905618,151.565858 L278.257183,131.230186 C277.538295,130.737179 277.087492,129.933136 277.037936,129.055563 L277.037936,127.527449 Z" id="Path" fill="#485AF4"></path><path d="M235.12763,101.560689 L248.054497,108.914287 C251.234682,110.716354 253.796499,115.10526 253.796499,118.709395 L253.649268,197.913164 C253.649268,201.517299 250.851882,202.970579 247.671696,201.168511 L234.273691,193.553323 L235.12763,101.560689 Z" id="Path" fill="url(#linearGradient-5)" opacity="0.5" style="mix-blend-mode: multiply;"></path><path d="M249.032685,187.19236 C249.032685,188.81692 248.456426,189.97732 247.53441,190.4995 L245.546314,191.717919 C240.734545,189.65821 242.463324,163.839311 242.146381,156.818891 L243.702283,118.815794 C242.405698,116.553014 237.449864,114.580334 238.602384,109.967744 L223.965386,103.063364 L187.228826,80.3775457 L187.228826,80.3775457 C187.1712,80.0584357 186.710192,78.2598158 186.911883,78.1437758 L187.574582,77.7086258 L187.574582,77.7086258 L189.044044,76.8093159 C190.196564,76.1420859 191.637213,76.5482259 192.674481,77.1574358 L192.674481,77.1574358 L244.076851,106.747634 C246.929337,108.401204 249.17675,112.404584 249.148211,115.624694 L249.032685,187.19236 Z" id="Path" fill="#D0E7FF"></path><path d="M186.076895,81.0392666 C186.076895,77.7627493 188.403199,76.4579415 191.223842,78.110698 L243.100413,107.657345 C245.950135,109.281106 248.247359,113.25352 248.218554,116.530038 L248.101966,188.091494 C248.101966,191.339016 245.775662,192.643824 242.92594,191.020063 L191.078448,161.473416 C188.228726,159.820659 185.931501,155.848245 185.931501,152.600723 L186.076895,81.0392666 Z" id="Path" fill="url(#linearGradient-6)"></path><path d="M189.650131,85.2785797 C189.650131,84.8642586 189.940649,84.7162868 190.28927,84.9234474 L196.477303,88.504365 C196.833721,88.7557002 197.058298,89.1587731 197.087391,89.5993564 L197.087391,98.3296928 C197.087391,98.7144195 196.825925,98.8919857 196.477303,98.6848251 L190.260219,95.0743131 C189.893426,94.8327984 189.665628,94.4239443 189.650131,93.9793218 L189.650131,85.2785797 Z" id="Path" fill="#FFB7E8"></path><path d="M198.946706,93.1863793 C198.976043,92.3444163 199.562783,92.0250511 200.296209,92.4605492 L239.461128,114.322554 C240.24019,114.839992 240.728915,115.689092 240.781294,116.616177 L240.781294,118.300103 C240.781294,119.142066 240.194553,119.461431 239.461128,119.025933 L200.296209,97.1639287 C199.509405,96.6496412 199.010292,95.801346 198.946706,94.8703053 L198.946706,93.1863793 Z" id="Path" fill="#FFB7E8"></path><path d="M190.579788,99.7355687 C190.579788,98.8756009 191.15632,98.5197521 191.905812,98.964563 C202.456343,105.132608 201.015014,104.361603 211.565545,110.499994 C212.349899,111.028108 212.842451,111.909309 212.891569,112.872319 L212.891569,114.5626 C212.891569,115.422568 212.28621,115.748763 211.565545,115.303952 C200.986187,109.165561 202.456343,109.936566 191.876985,103.798175 C191.107039,103.260258 190.626841,102.382068 190.579788,101.42585 L190.579788,99.7355687 Z" id="Path" fill="#FFB7E8"></path><path d="M190.579788,109.030128 C190.579788,108.170161 191.15632,107.814312 191.905812,108.259123 C202.456343,114.427168 201.015014,113.656162 211.565545,119.794553 C212.349899,120.322668 212.842451,121.203868 212.891569,122.166878 L212.891569,123.85716 C212.891569,124.717128 212.28621,125.043323 211.565545,124.598512 C200.986187,118.460121 202.456343,119.231126 191.876985,113.092735 C191.107039,112.554818 190.626841,111.676627 190.579788,110.72041 L190.579788,109.030128 Z" id="Path" fill="#FFB7E8"></path><path d="M189.650131,117.80407 C189.650131,117.419343 189.940649,117.241777 190.28927,117.448937 L196.477303,121.059449 C196.833721,121.310784 197.058298,121.713857 197.087391,122.154441 L197.087391,130.855183 C197.087391,131.269504 196.825925,131.417476 196.477303,131.210315 L190.260219,127.629397 C189.893426,127.387883 189.665628,126.979029 189.650131,126.534406 L189.650131,117.80407 Z" id="Path" fill="#FFB7E8"></path><path d="M198.946706,125.71755 C198.976043,124.875394 199.562783,124.555955 200.296209,124.991553 L239.461128,146.85859 C240.247234,147.369636 240.738167,148.222766 240.781294,149.152741 L240.781294,150.808015 C240.781294,151.650172 240.194553,151.998651 239.461128,151.563052 L200.296209,129.696015 C199.504912,129.172382 199.005825,128.313196 198.946706,127.372824 L198.946706,125.71755 Z" id="Path" fill="#FFB7E8"></path><path d="M190.579788,133.17231 C190.579788,132.312667 191.15632,131.986596 191.905812,132.431239 C202.456343,138.567306 201.015014,137.796592 211.565545,143.962303 C212.348963,144.4773 212.842707,145.349262 212.891569,146.304087 L212.891569,148.023371 C212.891569,148.883014 212.28621,149.209085 211.565545,148.764442 C200.986187,142.628375 202.456343,143.369446 191.876985,137.233378 C191.111478,136.705075 190.631255,135.838146 190.579788,134.891594 L190.579788,133.17231 Z" id="Path" fill="#FFB7E8"></path><path d="M190.579788,141.561088 C190.579788,140.70112 191.15632,140.345271 191.905812,140.790082 C202.456343,146.928473 201.015014,146.187122 211.565545,152.325513 C212.348963,152.840706 212.842707,153.712997 212.891569,154.668184 L212.891569,156.388119 C212.891569,157.248087 212.28621,157.574282 211.565545,157.129471 C200.986187,150.99108 202.456343,151.762086 191.876985,145.59404 C191.111478,145.065537 190.631255,144.19828 190.579788,143.251369 L190.579788,141.561088 Z" id="Path" fill="#FFB7E8"></path><path d="M190.579788,149.902517 C190.579788,149.042875 191.15632,148.716804 191.905812,149.161446 C202.456343,155.297514 201.015014,154.556443 211.565545,160.69251 C212.348963,161.207508 212.842707,162.079469 212.891569,163.034294 L212.891569,164.753579 C212.891569,165.613221 212.28621,165.939293 211.565545,165.49465 C200.986187,159.358583 202.456343,160.129296 191.876985,153.963586 C191.111478,153.435283 190.631255,152.568354 190.579788,151.621802 L190.579788,149.902517 Z" id="Path" fill="#FFB7E8"></path><path d="M375.87324,354.651283 C375.87324,351.943808 375.231955,350.273239 376.427078,348.804291 C377.6222,347.335342 379.400309,346.730481 380.507984,346.356043 C382.635885,345.63597 385.317624,346.010408 388.261706,347.680977 L415.312285,362.860114 C422.133229,366.748508 427.642452,376.195864 427.642452,383.915046 L427.350959,403.213 C427.321809,405.603642 426.826271,408.685555 424.960714,410.384927 C423.619844,411.565846 421.317047,412.775569 419.568087,412.919583 C417.819128,413.063598 417.119544,411.421832 414.933344,410.183306 L387.882765,395.032972 C381.061821,391.115775 375.552598,381.668419 375.581632,373.949237 L375.87324,354.651283 Z" id="Path" fill="#D0E7FF"></path><path d="M373.084267,355.611432 C373.113416,347.848513 378.651777,344.702944 385.472706,348.627691 L412.523225,363.807228 C419.344154,367.731975 424.882514,377.168683 424.85348,384.931602 L424.561872,404.266753 C424.532723,412.029672 418.965213,415.146383 412.173434,411.250494 L385.093765,396.042099 C378.272837,392.146211 372.763625,382.680644 372.792659,374.946583 L373.084267,355.611432 Z" id="Path" fill="url(#linearGradient-7)"></path><polygon id="Path" fill="#FFFFFF" points="404.459657 373.891292 420.205192 390.934309 420.175871 395.268779 404.401015 394.030359 404.430336 388.929249 415.455142 390.315099 404.459657 378.992403"></polygon><path d="M402.126321,369.751493 C402.397444,370.18451 402.541305,370.684029 402.5417,371.193783 C402.494052,371.813641 402.374585,372.42599 402.18566,373.01872 L397.675833,391.326965 C397.581688,391.806508 397.452784,392.278686 397.290124,392.73982 C397.226106,393.011533 397.040289,393.239251 396.785735,393.357944 C396.548376,393.475681 396.222006,393.387378 395.776958,393.151902 C394.708841,392.533778 394.174782,391.680178 394.174782,390.620537 C394.239705,389.976185 394.348747,389.336962 394.501151,388.707296 L398.981309,370.399052 C399.106107,369.739044 399.336485,369.10308 399.663717,368.515245 C399.871407,368.220901 400.286786,368.250335 400.880184,368.603549 C401.387327,368.874673 401.816262,369.269809 402.126321,369.751493 Z" id="Path" fill="#FFFFFF"></path><polygon id="Path" fill="#FFFFFF" points="377.440947 370.830981 377.440947 366.455644 393.245124 367.718325 393.245124 372.857144 382.229201 371.38891 393.215749 382.723677 393.215749 387.833131"></polygon><path d="M317.281806,189.647477 L307.961969,185.01909 C306.452214,184.295905 305.116661,182.56026 304.65212,180.737832 L301.893913,169.456139 C301.371305,167.402293 300.006719,165.840212 298.613098,165.145954 C297.219478,164.451696 295.796823,164.654188 295.274216,166.158414 L292.312772,174.60522 C291.848232,175.964808 290.483645,176.369792 288.97389,175.617679 L279.654053,170.989293 C276.257103,169.282575 274.805415,173.361341 277.534588,176.919413 L285.054332,186.754735 C286.244716,188.316816 286.73829,190.312807 286.244716,191.672396 L283.283273,200.090274 C282.441294,202.37554 284.357522,205.702193 286.535054,206.772508 C287.150832,207.125031 287.882163,207.218715 288.567417,207.032855 L296.174262,204.660806 C296.873888,204.5055 297.606306,204.608279 298.235659,204.950081 C299.031636,205.374634 299.725184,205.966926 300.268023,206.685726 L307.758733,216.549975 C308.29841,217.279269 308.992192,217.881636 309.791096,218.314547 C311.968628,219.384862 313.91389,217.996346 313.159012,214.901112 L310.342737,203.619419 C309.878197,201.796992 310.429839,200.292766 311.649257,199.945637 L319.256102,197.602517 C322.014309,196.763621 320.649722,191.325267 317.281806,189.647477 Z" id="Path" fill="#FFFFFF" opacity="0.5"></path><path d="M278.897251,214.939296 C278.897251,213.252269 280.083853,212.612362 281.530928,213.484962 L314.379532,232.129515 C315.855549,233.002115 317.013209,235.067268 317.013209,236.754294 L317.013209,240.070174 C317.013209,241.728114 315.826608,242.397107 314.379532,241.524507 L281.530928,222.879955 C280.054911,222.007355 278.897251,219.942202 278.897251,218.255175 L278.897251,214.939296 Z" id="Path" fill="#A8CAFC"></path><path d="M260.304101,313.09864 C260.304101,311.762527 261.229119,311.239701 262.385392,311.907757 L333.467255,352.891568 C334.698909,353.697766 335.472503,355.047275 335.548546,356.522309 L335.606359,369.622025 C335.606359,370.958138 334.681341,371.480964 333.525068,370.812908 L262.443206,329.829097 C261.211551,329.022898 260.437958,327.67339 260.361915,326.198356 L260.304101,313.09864 Z" id="Path" fill="#6699FD"></path><path d="M260.304101,245.345017 C260.304101,244.008904 261.229119,243.486077 262.385392,244.154134 L333.467255,285.137944 C334.698909,285.944143 335.472503,287.293651 335.548546,288.768686 L335.606359,301.868401 C335.606359,303.204514 334.681341,303.727341 333.525068,303.059285 L262.443206,262.075474 C261.211551,261.269275 260.437958,259.919767 260.361915,258.444733 L260.304101,245.345017 Z" id="Path" fill="url(#linearGradient-8)"></path><path d="M241.242328,218.846416 L241.242328,213.647272 L245.733105,216.232321 L245.733105,221.40242 L241.242328,218.846416 Z M241.242328,268.978948 L241.242328,263.779804 L245.733105,266.364853 L245.733105,271.534952 L241.242328,268.978948 Z M351.049067,281.61374 L351.049067,276.414596 L355.539844,278.999645 L355.539844,284.169744 L351.049067,281.61374 Z M351.049067,331.746272 L351.049067,326.547128 L355.539844,329.132177 L355.539844,334.302276 L351.049067,331.746272 Z M247.123798,219.775872 L247.123798,223.813196 L243.531176,221.750966 L243.647067,263.576485 L247.094825,265.551579 L247.094825,269.269403 L349.658375,328.318903 L349.658375,324.165397 L352.874351,325.995263 L352.75846,284.169744 L349.687348,282.427014 L349.687348,278.825372 L247.123798,219.775872 L247.123798,219.775872 Z M242.575075,221.199101 L242.690966,262.995575 L239.851636,261.369027 L239.851636,269.792222 L247.123798,273.945728 L247.123798,270.402177 L349.687348,329.451678 L349.687348,332.559546 L356.959509,336.713053 L356.959509,328.318903 L353.859424,326.547128 L353.772506,284.750654 L356.988482,286.580521 L356.988482,278.186371 L349.71632,274.032865 L349.71632,277.692598 L247.15277,218.643097 L247.15277,215.419047 L239.880609,211.236495 L239.880609,219.65969 L242.575075,221.199101 Z" id="Shape" fill="url(#linearGradient-9)" opacity="0.5"></path><path d="M344.366059,183.266298 L361.446555,193.221566 L366.285057,189.922436 L366.285057,280.243343 L366.081024,324.144918 L361.096783,326.489037 C350.487056,320.353813 346.931048,318.935766 336.32132,312.887362 C333.435708,311.237797 331.103899,307.215174 331.103899,303.916045 L330.958072,188.128173 C330.929014,179.272615 338.011881,178.954277 344.366059,183.266298 Z" id="Path" fill="url(#linearGradient-10)" opacity="0.5" style="mix-blend-mode: multiply;"></path><path d="M340.254647,183.777716 L342.583835,182.564707 C343.399051,182.275895 344.447186,182.420301 345.55355,183.084568 C373.474696,198.969207 401.337613,215.402588 429.258759,231.287226 C431.879096,232.789047 434.033595,236.456954 434.00448,239.460595 L434.150055,349.093484 C434.150055,350.450899 433.713332,351.432858 432.956346,351.9816 C432.199359,352.530342 430.277779,354.032163 428.851151,353.194609 C400.930005,337.30997 373.591156,319.461412 345.67001,303.576774 C343.020558,302.074953 340.895174,298.407046 340.924288,295.403405 L340.254647,183.777716 Z" id="Path" fill="#D0E7FF"></path><path d="M338.395332,186.713373 C338.395332,183.708348 340.540472,182.49478 343.178415,183.997293 C370.949288,199.889251 398.691172,216.330204 426.491033,232.222162 C429.128977,233.724675 431.245129,237.394272 431.245129,240.399297 L431.361082,350.082703 C431.361082,353.087728 429.215942,354.301296 426.606987,352.798783 C398.807126,336.906825 371.065242,320.436977 343.26538,304.545019 C340.656426,303.042507 338.540274,299.372909 338.540274,296.367884 L338.395332,186.713373 Z" id="Path" fill="url(#linearGradient-11)"></path><path d="M374.075816,281.18325 L364.778984,275.720206 C364.199743,275.371501 363.765311,275.255266 363.417766,275.342442 C363.226688,275.381998 363.059606,275.49725 362.954373,275.662088 C362.798033,275.939587 362.699501,276.246057 362.664752,276.562909 C362.577865,277.521848 362.954373,278.829491 363.88116,280.108076 L371.382341,290.627342 C372.029468,291.553373 372.509785,292.586059 372.801484,293.67851 C373.046489,294.644141 373.026474,295.6583 372.74356,296.613443 L369.760464,304.808009 C369.441881,305.621654 369.644616,306.725886 370.136971,307.772001 C370.645148,308.919166 371.469035,309.897016 372.511863,310.590699 C372.749034,310.720376 373.002225,310.818082 373.264877,310.881287 C373.455514,310.924882 373.653483,310.924882 373.844119,310.881287 L381.403225,309.166821 C381.863183,309.074638 382.337674,309.084556 382.793406,309.195879 C383.28353,309.303205 383.753034,309.48967 384.183586,309.747996 C384.640247,310.022603 385.067307,310.343967 385.457918,310.706934 C385.862104,311.099285 386.230431,311.527192 386.558478,311.985519 L394.030697,322.533843 C394.288897,322.881195 394.569463,323.211232 394.870598,323.52184 C395.131239,323.771989 395.423331,323.986905 395.739461,324.161133 C396.048377,324.371471 396.40918,324.49214 396.782096,324.509838 C396.999198,324.527671 397.215358,324.465705 397.3903,324.335485 C397.583797,324.170859 397.716422,323.945667 397.766807,323.696193 C397.878303,323.145617 397.848404,322.575635 397.679921,322.039844 C396.753134,318.175031 395.623612,314.135866 394.841636,310.271053 C394.611324,309.339651 394.651523,308.361568 394.957484,307.452355 C395.233867,306.611505 395.924098,305.973934 396.782096,305.766948 C399.214912,305.127655 401.966311,304.633657 404.457051,304.08154 C404.625239,304.041308 404.776953,303.949975 404.891482,303.820012 C405.150725,303.457733 405.273839,303.0151 405.239027,302.570486 C405.182234,301.836276 404.995913,301.118024 404.688747,300.449197 C404.18538,299.314404 403.359194,298.354043 402.313856,297.688617 L393.017024,292.254631 C392.078654,291.682967 391.269728,290.920831 390.642133,290.017108 C389.97402,289.103398 389.491797,288.066615 389.22299,286.96594 L386.442629,275.40056 C386.244833,274.575407 385.890873,273.796068 385.399994,273.104919 C384.936175,272.460632 384.356683,271.908771 383.691231,271.477629 L384.560093,269.792222 C385.509729,270.371839 386.328444,271.143802 386.963947,272.058804 C387.604724,272.974086 388.07566,273.997853 388.354127,275.080913 L391.105526,286.646294 C391.322212,287.484177 391.695697,288.273084 392.206086,288.970993 C392.653131,289.611717 393.224473,290.155315 393.885887,290.569224 L403.211681,296.032268 C404.639159,296.910729 405.761799,298.209625 406.426473,299.751787 C406.871717,300.669306 407.127834,301.667543 407.179487,302.686721 C407.250457,303.612435 406.959625,304.52953 406.368549,305.24389 C406.015739,305.631345 405.549099,305.895979 405.036292,305.999418 L397.3903,307.684825 C397.094399,307.766222 396.863223,307.998169 396.782096,308.295058 C396.6093,308.85202 396.599249,309.447007 396.753134,310.009524 L399.591419,321.720198 C399.826317,322.58358 399.846208,323.491642 399.649343,324.364544 C399.506884,324.984059 399.159859,325.537055 398.664632,325.933716 C398.159198,326.321308 397.533346,326.516896 396.897945,326.485832 C396.167377,326.463976 395.456523,326.242976 394.841636,325.84654 C394.386228,325.583325 393.967481,325.260888 393.596266,324.887601 C393.186133,324.490324 392.817379,324.052184 392.495707,323.579958 L384.994525,313.060692 C384.771182,312.703874 384.498102,312.380955 384.183586,312.101754 C383.923215,311.843099 383.631276,311.618532 383.314723,311.433403 C383.076731,311.277863 382.811315,311.16937 382.532747,311.113757 C382.354129,311.060911 382.165627,311.050957 381.982467,311.084698 L374.423361,312.799164 C373.967285,312.916017 373.489256,312.916017 373.033181,312.799164 C372.545325,312.699005 372.076201,312.522497 371.643,312.276106 C370.214157,311.344526 369.079043,310.024206 368.370284,308.469411 C367.675194,306.987415 367.414535,305.331066 367.90689,303.994364 L370.889986,295.799798 C371.065484,295.212158 371.065484,294.585796 370.889986,293.998156 C370.684767,293.170379 370.320788,292.390642 369.818388,291.702515 L362.317207,281.18325 C361.071837,279.439725 360.608443,277.638083 360.724291,276.214204 C360.767599,275.579851 360.977436,274.968292 361.332495,274.441621 C361.689107,273.924581 362.226869,273.561418 362.838524,273.424565 C363.649463,273.250212 364.57625,273.395506 365.647847,274.034799 L374.973641,279.497843 L374.075816,281.18325 Z" id="Path" fill="#A8C9FC"></path><path d="M386.5483,226.175329 L381.6532,223.570279 L376.729306,220.531055 C376.642922,220.90734 374.742472,227.825194 371.863002,228.635654 C378.658551,241.718792 379.349624,258.883175 379.407214,259.809414 L380.990922,260.735654 L380.990922,237.174428 C379.695161,236.074518 378.716141,234.193093 378.716141,232.601118 C378.716141,231.009143 380.011902,230.025014 381.624406,230.893363 C383.236909,231.761713 384.532671,234.077313 384.532671,235.929793 C384.532671,237.782272 383.582445,238.332227 382.286684,237.926997 L382.286684,261.488224 L383.899187,262.356574 C383.927982,261.488224 384.619055,245.134301 391.385809,239.866312 C388.535134,235.785068 386.634684,226.667394 386.5483,226.175329 Z" id="Path" fill="#A8C9FC"></path><polygon id="Path" fill="#485AF4" points="375.581632 213.095407 375.611145 221.631003 386.708009 227.966703 386.737522 219.460439"></polygon><path d="M404.515239,280.412249 L402.333875,279.201658 L402.333875,276.665183 L404.515239,277.904597 L404.515239,280.412249 Z M383.079706,269.574583 L378.571554,267.009284 L378.571554,261.878687 L383.137875,264.443986 L383.137875,269.574583 L383.079706,269.574583 Z M359.142876,254.672793 L356.961512,253.404555 L356.961512,250.925728 L359.142876,252.193965 L359.142876,254.672793 Z M356.525239,226.223921 L356.525239,221.035676 L361.004306,223.629798 L361.004306,228.760395 L356.496155,226.223921 L356.525239,226.223921 Z M400.38519,251.069845 L400.38519,245.968072 L404.893342,248.504547 L404.893342,253.663968 L400.414275,251.069845 L400.38519,251.069845 Z M400.908717,274.272826 L400.908717,276.521065 L388.460403,269.459289 C391.572481,269.920466 394.364627,269.488112 396.633245,268.162228 C400.588784,265.885165 403.060996,261.071627 403.177336,254.269263 L405.562293,255.652794 L406.26033,256.056325 L406.26033,247.697487 L398.960033,243.575715 L398.960033,251.876906 L401.781263,253.491026 C401.694008,259.861037 399.367221,264.357515 395.64436,266.49046 C392.677706,268.219875 388.809421,268.392816 384.475778,266.807519 L384.475778,263.636926 L377.175482,259.515154 L377.175482,262.628101 C372.812754,259.284565 368.94447,254.701616 365.977815,249.628666 C362.22587,243.258656 359.899082,236.139232 359.811827,229.653926 L361.760512,230.749222 L362.429464,231.123929 L362.429464,222.793915 L355.129167,218.672143 L355.129167,227.002157 L358.415755,228.846866 C358.532094,235.793349 361.004306,243.37395 364.959845,250.205138 C367.225238,254.072555 369.992489,257.628945 373.190857,260.783391 L360.538948,253.635144 L360.538948,251.358081 L355.536355,248.533371 L355.536355,254.240439 L359.811827,256.632796 L360.480779,257.036326 L360.480779,254.816911 L377.146397,264.271044 L377.146397,267.816345 L383.719572,271.56341 L384.446694,271.995764 L384.446694,268.392816 L400.850548,277.731656 L400.850548,279.979895 L405.12602,282.429899 L405.853142,282.804606 L405.853142,277.126361 L400.908717,274.272826 Z" id="Shape" fill="#A8C9FC"></path><path d="M304.034264,122.519932 L306.790053,122.519932 L306.790053,127.55015 C306.790053,128.446338 303.947239,128.966706 304.034264,126.567234 L304.034264,122.519932 Z M449.626944,202.338509 L446.871155,202.338509 L446.871155,196.845742 L449.626944,196.845742 L449.626944,202.338509 Z M431.989895,301.873228 L433.295269,302.364686 L434.194526,299.762849 C433.77748,299.638937 433.370244,299.484329 432.976178,299.3003 C431.90287,299.069026 431.06163,301.266133 431.989895,301.873228 L431.989895,301.873228 Z M436.225108,303.087419 C438.278936,303.428568 440.386225,303.23946 442.34586,302.538142 L441.359578,299.965214 C439.844707,300.503555 438.216021,300.642965 436.631224,300.369944 L436.225108,303.087419 L436.225108,303.087419 Z M445.101649,300.94813 C446.720438,299.636506 447.961568,297.920814 448.698679,295.975731 L446.145948,294.963905 C445.507765,296.467189 444.666524,297.797017 443.390159,298.808842 L445.101649,300.94813 L445.101649,300.94813 Z M449.539919,293.084801 C449.946036,291.06115 449.975044,289.41332 449.946036,287.360759 L447.190247,287.360759 C447.190247,289.239864 447.190247,290.743148 446.842147,292.564433 L449.539919,293.084801 Z M449.946036,284.585467 L447.190247,284.585467 L447.190247,279.0927 L449.946036,279.0927 L449.946036,284.585467 Z M449.917027,276.346316 L447.161238,276.346316 L447.161238,270.853549 L449.917027,270.853549 L449.917027,276.346316 Z M449.859011,268.107166 L447.103222,268.107166 L447.103222,262.614399 L449.888019,262.614399 L449.888019,268.107166 L449.859011,268.107166 Z M449.830003,259.839106 L447.074214,259.839106 L447.074214,254.346339 L449.830003,254.346339 L449.830003,259.839106 Z M449.800994,251.599956 L447.045205,251.599956 L447.045205,246.107189 L449.800994,246.107189 L449.800994,251.599956 Z M449.771986,243.360805 L447.016197,243.360805 L447.016197,237.868038 L449.771986,237.868038 L449.771986,243.389714 L449.771986,243.360805 Z M449.713969,235.092745 L446.95818,235.092745 L446.95818,229.599978 L449.713969,229.599978 L449.713969,235.092745 L449.713969,235.092745 Z M449.684961,226.853595 L446.929172,226.853595 L446.929172,221.360828 L449.684961,221.360828 L449.684961,226.853595 Z M449.655953,218.585535 L446.900164,218.585535 L446.900164,213.092768 L449.655953,213.092768 L449.655953,218.585535 Z M449.626944,210.346385 L446.871155,210.346385 L446.871155,204.853618 L449.626944,204.853618 L449.626944,210.346385 L449.626944,210.346385 Z M449.278845,193.665719 C448.998108,191.785404 448.571371,189.929637 448.002479,188.115133 L445.362724,188.924593 C445.902547,190.603802 446.300383,192.325097 446.552064,194.070449 L449.278845,193.665719 L449.278845,193.665719 Z M447.074214,185.426568 C446.39452,183.652165 445.599955,181.923609 444.695533,180.251804 L442.287843,181.552722 C443.134495,183.118906 443.871139,184.74172 444.492474,186.409484 L447.074214,185.426568 L447.074214,185.426568 Z M443.303134,177.794513 C442.289753,176.198384 441.195698,174.654567 440.025196,173.169025 L437.849573,174.903583 C438.975299,176.292177 440.011988,177.750175 440.953461,179.268887 L443.303134,177.794513 L443.303134,177.794513 Z M438.139656,171.029737 C436.861962,169.612015 435.464426,168.306296 433.96246,167.126981 L432.25097,169.295179 C433.632708,170.38352 434.923025,171.582416 436.109075,172.879932 L438.139656,171.029737 L438.139656,171.029737 Z M431.612787,165.450242 C430.046339,164.438416 428.392866,163.571137 426.797409,162.64604 L425.40501,165.016602 C426.971459,165.912791 428.595924,166.78007 430.104355,167.762986 L431.612787,165.450242 L431.612787,165.450242 Z M424.38972,161.287303 L423.026329,163.657865 L418.239959,160.911482 L419.603349,158.540919 L424.38972,161.287303 Z M417.19566,157.182182 L415.83227,159.552745 L411.045899,156.806361 L412.40929,154.435799 L417.19566,157.182182 Z M410.030609,153.077062 L408.667219,155.447624 L403.880848,152.701241 L405.244239,150.330678 L410.030609,153.077062 Z M402.836549,148.971941 L401.473159,151.342504 L396.686789,148.625029 L398.050179,146.225558 L402.836549,148.971941 L402.836549,148.971941 Z M395.671498,144.86682 L394.2791,147.237383 L389.492729,144.519909 L390.885128,142.120437 L395.671498,144.86682 Z M388.477439,140.7617 L387.114048,143.132263 L382.327678,140.414788 L383.691068,138.015316 L388.477439,140.7617 Z M381.312387,136.656579 L379.919989,139.027142 L375.133619,136.309668 L376.526017,133.910196 L381.312387,136.656579 Z M374.118328,132.551459 L372.754938,134.922021 L367.968567,132.204547 L369.331958,129.805075 L374.118328,132.551459 Z M366.953277,128.446338 L365.560878,130.816901 L360.774508,128.099427 L362.166906,125.699955 L366.953277,128.446338 Z M359.759217,124.341218 L358.395827,126.71178 L353.609457,123.994306 L354.972847,121.594834 L359.759217,124.341218 Z M352.594166,120.236097 L351.201767,122.60666 L346.415397,119.889185 L347.807796,117.489714 L352.594166,120.236097 Z M345.400107,116.130976 L344.036716,118.501539 L339.250346,115.784065 L340.613736,113.384593 L345.400107,116.130976 Z M338.235055,112.025856 L336.842657,114.396418 L332.056286,111.678944 L333.448685,109.279472 L338.235055,112.025856 Z M331.040996,107.920735 L329.677606,110.291298 L324.891235,107.573824 L326.254626,105.174352 L331.040996,107.920735 Z M323.817928,103.815615 C322.070214,102.874303 320.193862,102.192551 318.248334,101.791964 L317.755192,104.509438 L318.915525,104.798531 C320.170275,105.129136 321.378648,105.614721 322.512554,106.243996 L323.817928,103.815615 L323.817928,103.815615 Z M315.202462,101.560689 C313.683665,101.61008 312.191865,101.974372 310.822208,102.630333 L309.864934,103.121792 L309.284768,103.526522 L310.909233,105.752538 L311.315349,105.463445 C312.533979,104.759565 313.910444,104.371892 315.318495,104.335982 L315.202462,101.560689 Z M307.02212,105.723629 L306.84807,105.954903 C305.714607,107.538823 304.924297,109.340485 304.527406,111.245305 L307.225178,111.8524 C307.567425,110.248648 308.239032,108.732845 309.197743,107.400368 L309.226751,107.400368 L307.02212,105.723629 L307.02212,105.723629 Z M304.092281,114.136235 C303.947239,115.98643 304.005256,117.923353 304.034264,119.744639 L306.790053,119.744639 C306.790053,118.010081 306.703028,116.130976 306.84807,114.367509 L304.092281,114.136235 Z" id="Shape" fill="url(#linearGradient-12)"></path><path d="M236.602209,450.771073 L182.612316,419.929048 C176.739425,417.215416 168.308047,415.056183 162.318861,418.207497 C156.853002,421.067022 147.869224,426.902789 143.886124,429.178737 C140.862458,430.900289 130.366846,437.202916 136.908432,440.762734 C156.126159,451.267113 175.140371,463.055361 194.677909,473.705635 C198.370271,475.748153 203.748909,476.477624 209.418284,475.981584 C215.087658,475.485544 220.873328,473.880708 225.408828,471.225434 L234.974081,465.623099 C239.218844,463.142898 241.45752,460.225015 241.69011,457.511383 C241.9227,454.797752 240.20735,452.434267 236.602209,450.771073 Z" id="Path" fill="#5F7FFB" opacity="0.2"></path><path d="M168.253249,412.744844 C168.005087,413.498212 167.702974,414.233022 167.349219,414.943659 C166.678486,415.638022 165.891105,416.043067 165.511995,416.853156 C163.470635,421.135059 163.033201,425.243371 164.432991,447.231519 L169.653039,447.318314 L170.294609,439.564599 C170.936179,436.439967 172.715078,431.839815 173.444135,428.97557 C174.989736,422.870965 175.16471,419.746334 176.068741,415.319772 L176.127065,415.319772 C181.81371,398.076435 187.704491,381.151347 192.42878,363.792283 L208.672171,317.125332 L209.167929,304.597874 C209.255416,302.601581 208.176412,301.097129 207.534842,299.534813 C199.165267,301.965082 194.499302,304.597874 185.51732,304.279624 C182.83439,308.243277 179.13078,315.678743 179.014131,321.291507 C178.75167,332.25665 179.597377,339.547457 176.243714,357.832338 C166.241052,391.190673 172.044346,390.612037 168.253249,412.744844 Z" id="Path" fill="url(#linearGradient-13)"></path><path d="M158.971433,432.447019 C158.29154,432.377235 156.967538,432.307451 156.824403,432.132992 C156.681267,431.958533 155.858239,430.039481 156.323429,429.690562 C156.788619,429.341643 158.75673,431.958533 158.971433,432.447019 Z" id="Path" fill="#1F202B"></path><path d="M161.851367,424.081915 C162.480482,426.051086 161.581746,427.933383 160.952631,429.960471 C158.705792,437.113198 157.417604,437.489657 158.346298,440.732999 C158.98407,442.827715 160.099947,444.757409 161.611704,446.379889 C163.079639,447.972601 163.499049,449.130937 165.356437,450.376149 C168.142518,452.229487 170.658978,453.098239 170.029863,449.362605 C169.845962,448.179147 169.545004,447.015478 169.131127,445.887596 C167.153908,441.428001 164.847153,439.487788 166.075425,433.927773 C167.004119,429.815679 168.502012,427.093589 166.584709,424.313582 L161.851367,424.081915 Z" id="Path" fill="#161A40"></path><path d="M161.810451,418.974227 C160.97224,422.710439 159.714923,425.83843 156.182461,429.922197 C156.631503,429.806345 157.769075,430.935898 158.397734,432.181302 C163.007896,427.054871 165.253105,424.564064 166.660103,426.765243 C166.540358,428.618867 165.821891,431.978561 165.223169,434.614184 C165.043552,435.454107 164.833999,437.365658 165.402786,438.668987 C167.198953,442.868605 170.521862,449.008736 169.264545,451.036138 C169.713587,450.485843 170.192565,449.008736 170.192565,447.010298 C170.192565,444.114009 169.683651,440.175057 169.623779,437.742175 C169.53397,434.498332 170.791287,431.65997 171.00084,427.199686 C171.075694,425.964997 171.075694,424.727126 171.00084,423.492437 C170.821223,420.335483 170.46199,416.164828 168.156909,414.977349 C167.348633,414.571869 165.223169,414.861498 164.145469,415.411793 C162.58879,416.164828 162.139749,417.555046 161.810451,418.974227 Z" id="Path" fill="#161F69"></path><path d="M198.778825,424.789349 C198.367976,428.124076 195.28661,431.284817 194.934454,433.459639 C194.024717,438.679212 197.839742,435.953435 202.183002,442.680884 C203.914436,442.651887 207.729462,448.857379 212.923765,449.177226 C214.097619,449.234348 216.210557,446.39258 213.862849,444.391744 C212.835726,443.782794 211.896643,444.217758 211.045599,443.492818 C209.343511,442.013939 207.377306,430.588874 207.494691,426.12324 C212.190107,401.533252 215.154088,378.074173 219.820157,354.035141 C222.167865,341.914133 222.608061,334.461743 221.845055,325.559472 C221.522246,320.455889 222.079826,317.933096 220.377738,313.003499 C219.702772,311.089656 218.793035,309.494787 217.912645,307.899917 C209.871745,310.335718 203.914436,312.742521 194.817068,312.423547 C192.733478,316.425219 190.94335,321.760782 191.677009,327.386322 C193.144326,338.347425 198.720133,346.321772 199.952679,365.141231 C193.966024,385.816539 200.18745,402.316188 198.749479,424.673358 C198.77282,424.707382 198.783217,424.748474 198.778825,424.789349 L198.778825,424.789349 Z" id="Path" fill="url(#linearGradient-14)"></path><path d="M216.006152,376.557152 C217.222962,369.15257 218.497715,361.719065 219.917326,354.256635 C222.23506,342.166341 222.669635,334.732835 221.916371,325.853122 C221.597683,320.762472 222.148145,318.246072 220.467788,313.328967 C220.236015,312.663711 218.787432,309.829145 218.903318,309.453131 C216.411755,303.957543 216.064095,287.731096 216.064095,287.586476 C217.251933,278.96708 221.945343,275.958969 219.424808,268.612235 C217.570622,266.06691 212.587496,262.01753 207.372596,259.182963 C200.071737,255.191431 191.930699,252.67503 187.527006,252.18332 C178.256074,251.14205 178.256074,266.385076 181.471929,273.587189 C187.903638,287.904641 188.640067,293.71787 185.366269,304.593349 C182.787791,308.729502 179.328026,310.049689 178.390119,320.535378 C177.452213,331.021067 180.383305,342.455668 176.396934,357.40132 C172.410562,372.346972 173.279712,367.590456 172.410562,371.350595 C179.189931,383.672282 201.954895,383.065085 216.006152,376.557152 Z" id="Path" fill="url(#linearGradient-15)"></path><path d="M196.364127,428.729195 C200.462461,429.231276 204.302858,439.568256 207.455422,444.057458 C209.003045,446.242991 212.270248,443.968855 210.951903,443.407705 C211.611075,443.437239 214.104467,443.141897 215.938687,443.437239 C218.518058,443.880253 217.600948,446.538333 215.852708,447.778771 C211.954992,450.554988 208.51583,452.120302 204.96203,450.259646 C204.208772,449.826759 203.490025,449.332973 202.812554,448.782934 C202.298957,448.426701 201.819165,448.021266 201.379571,447.572031 C200.233183,446.183922 199.774629,443.909787 198.74288,441.960528 C198.398964,441.340309 198.112367,441.192638 197.88309,441.369844 C197.653813,441.547049 197.91175,451.263809 198.112367,453.124466 C197.997729,453.656082 196.249488,454.069561 195.905572,453.656082 L192.638369,437.175983 C192.265879,435.762173 192.419193,434.255973 193.068264,432.952589 C194.042693,431.032864 195.934232,429.526619 196.364127,428.729195 Z" id="Path" fill="#161F69"></path><path d="M207.313624,451.036138 C206.551205,450.901012 205.814612,450.642362 205.131469,450.269887 C204.345808,449.820646 203.596143,449.308204 202.88953,448.737385 C202.35384,448.367693 201.853408,447.94694 201.394904,447.480733 C200.079633,445.917581 199.45189,442.975177 198.017048,440.952274 C198.495329,440.645773 199.750815,440.676423 201.006301,442.791276 C202.88953,446.346681 204.174908,448.951935 206.655988,450.668338 C206.868776,450.802645 207.08829,450.925414 207.313624,451.036138 Z" id="Path" fill="#161A40"></path><path d="M178.57092,277.711862 L194.650325,281.320269 C197.860317,282.734765 195.416011,289.43197 192.23547,290.240253 L169.794981,287.382395 C164.081786,286.198837 162.815459,282.503827 164.052336,279.617101 L164.140685,279.443897 C164.523528,277.654127 175.979368,261.546195 177.599088,259.38115 C179.896146,256.350088 182.311002,254.387114 183.282834,253.809769 C185.226498,252.655078 187.788601,252.943751 189.49667,253.954105 C191.793728,255.368601 192.559414,257.649115 191.67593,259.785292 C190.02676,263.653505 183.783475,271.216728 178.57092,277.711862 Z" id="Path" fill="url(#linearGradient-16)"></path><path d="M247.288896,271.278378 C251.026536,268.896058 256.115476,264.39943 259.565605,263.922966 C261.779437,262.761586 265.028308,260.85573 267.098386,259.724128 C268.622193,258.890316 269.283467,261.629984 267.960918,262.523354 C266.638369,263.416723 263.245742,265.59059 263.216991,265.59059 L263.073236,265.650148 C263.907017,267.07954 264.079523,269.104511 263.820763,270.533903 C263.504502,272.40998 259.479351,274.792299 256.978008,276.54926 C254.476665,278.306221 252.061574,276.936387 250.537768,278.157326 C248.007673,276.936387 247.576407,273.839372 247.288896,271.278378 Z" id="Path" fill="url(#linearGradient-17)"></path><path d="M229.375776,282.002768 C233.546791,278.616413 238.782135,275.69315 242.981917,273.030375 C243.672292,272.596227 244.679089,272.62517 245.225636,272.306795 L246.807745,271.380612 C248.303557,272.219965 250.173323,275.287945 251.007526,277.719174 C250.432214,278.211208 249.885667,278.703243 249.310354,279.253164 C248.735042,279.803085 248.41862,281.105529 247.987136,281.539677 C243.298339,286.228476 240.105354,290.425241 235.53162,293.637936 C234.87001,294.101028 232.137276,296.47437 230.440104,297.342667 C228.742932,298.210963 225.377354,297.342667 223.967838,295.200869 C222.759682,294.129971 221.695354,292.914356 221.004979,292.277606 C217.898291,289.354342 210.160338,282.697405 205.931791,276.995594 C202.825103,272.798829 203.314119,270.483373 204.551041,268.312633 C207.398838,263.218629 211.684916,259.948047 216.431244,264.578959 C218.703729,266.7497 220.199541,270.425487 222.155604,272.943545 C224.111666,275.461604 227.016994,278.905845 229.375776,282.002768 Z" id="Path" fill="url(#linearGradient-18)"></path><path d="M186.223031,252.181205 C183.345098,251.862111 181.359324,253.138484 180.121813,255.256103 L179.949137,255.517179 L179.891578,255.633213 L179.776461,255.865281 L179.776461,255.923298 L179.632564,256.213383 L179.632564,256.300408 L179.517447,256.561484 L179.517447,256.619501 C179.470993,256.722725 179.432507,256.829406 179.402329,256.938595 L179.344771,257.054628 L179.258433,257.315705 L179.258433,257.40273 L179.172095,257.721823 L179.172095,257.808849 L179.085757,258.098934 L179.085757,258.185959 L178.999419,258.563069 L178.999419,258.563069 L178.913081,258.911171 L178.913081,259.027205 C178.884301,259.11423 178.884301,259.230264 178.855522,259.346298 L178.855522,259.404315 L178.769184,259.781425 L178.769184,259.897459 L178.711625,260.216552 L178.711625,260.216552 L178.654067,260.593663 L178.654067,263.813603 L178.654067,263.813603 C178.654067,264.103688 178.654067,264.422781 178.682846,264.712866 L178.682846,265.641137 L178.682846,265.641137 L178.682846,266.134281 L178.740405,266.511392 L178.740405,266.627426 L178.797963,266.975527 L178.797963,267.033544 L178.855522,267.439663 L178.855522,267.526688 L178.913081,267.87479 L178.913081,267.961815 L178.999419,268.338926 L178.999419,268.425951 L179.056977,268.774053 L179.056977,268.83207 C179.114536,269.093146 179.143315,269.354222 179.200874,269.615299 L179.200874,269.731333 L179.287212,270.050426 L179.287212,270.108443 L179.402329,270.514561 L179.402329,270.514561 C179.459888,270.775638 179.546226,271.007705 179.603785,271.268782 L179.603785,271.355807 L179.690123,271.645892 L179.747681,271.732917 L179.834019,272.052011 L179.834019,272.139036 L179.949137,272.429121 L179.949137,272.487138 C179.991618,272.595929 180.039647,272.702436 180.093033,272.806231 L180.093033,272.806231 L180.208151,273.096316 L180.208151,273.183341 L180.352047,273.502434 C186.741059,287.86163 187.201529,295.200774 183.949464,306.107961 C181.388103,310.256173 178.337494,316.928123 178.222377,322.062623 C177.963363,333.056836 178.797963,340.366972 175.48834,358.700328 C173.963036,363.892846 172.783083,368.273125 171.919703,372.044227 C174.999092,377.729889 181.359324,380.572719 188.640495,381.32694 C218.743677,348.025209 176.294162,336.044709 192.410588,305.498783 C194.252465,302.017766 205.562743,297.579469 208.383117,293.286215 C214.426777,286.121121 216.844241,279.043053 207.692413,267.642722 C206.167109,265.757171 205.044715,264.770883 203.001382,261.928052 C199.691759,262.711281 193.504202,261.608959 192.75594,260.245561 C192.496926,259.752417 193.820775,255.575196 193.59054,255.053044 C187.777115,252.674349 189.590213,252.558315 186.223031,252.181205 Z" id="Path" fill="url(#linearGradient-19)" opacity="0.5" style="mix-blend-mode: multiply;"></path><path d="M189.667971,256.212528 C188.949419,259.318079 199.986376,262.660244 203.751588,260.974374 L203.837815,260.234957 C204.815045,255.591418 205.763534,251.657719 206.453343,248.374707 C208.20661,249.173278 212.517922,249.380315 212.891569,248.759204 C201.27977,239.205936 187.684768,232.137109 185.931501,236.958108 C187.081184,240.477734 190.07036,242.962175 191.536206,245.210003 C191.938595,245.831113 192.254758,247.073333 192.312242,248.345131 L192.340984,248.345131 C191.909853,250.799995 190.990106,253.16613 189.667971,256.212528 Z" id="Path" fill="url(#linearGradient-20)"></path><path d="M213.537694,249.225871 C212.509774,249.901158 205.255594,247.464251 204.668211,247.493611 C198.999965,247.787215 192.92055,247.317449 191.775153,245.64391 C190.277327,243.412525 187.222935,240.946257 186.048169,237.452378 C184.168543,231.932636 184.520973,225.678885 189.601836,221.304196 C198.412582,213.758591 212.245452,219.278333 214.242554,227.85155 C215.035521,231.37479 214.03697,231.668393 214.213185,234.017219 C214.506876,238.362548 215.006152,236.71837 214.594984,243.588687 C214.448138,246.201757 214.213185,248.785466 213.537694,249.225871 Z" id="Path" fill="#FFA698"></path><path d="M191.793217,251.203102 C192.107914,254.143661 199.803683,256.248482 204.466919,255.072259 C204.981877,254.948446 205.296574,254.824633 205.468227,254.484147 C206.154838,254.886539 208.014411,257.827098 208.243281,259.281901 C204.209439,263.491543 191.449912,261.015283 189.905036,256.093716 C189.533122,254.917492 189.189816,252.688858 191.793217,251.203102 Z" id="Path" fill="#C758D8"></path><path d="M170.326784,242.746477 C162.848068,248.926991 158.612078,260.103902 162.030084,266.428821 C165.126739,272.176121 172.663882,275.555187 170.326784,279.194181 C168.427891,282.197796 163.899763,285.20141 169.275089,290.053402 C172.050394,292.53716 178.798765,299.23753 192.587646,295.771822 C206.376527,292.306113 220.10698,280.927036 208.801267,268.363841 C196.882065,255.165267 203.864146,252.248296 210.670945,241.851169 C214.293448,236.363797 217.536172,225.533457 214.439517,221.49013 C209.122618,214.558712 205.587756,219.555109 200.504567,217.100232 C190.747181,212.450406 182.742619,215.771711 178.185277,223.07858 C174.066141,229.605665 176.286385,237.807842 170.326784,242.746477 Z" id="Path" fill="url(#linearGradient-21)"></path><path d="M105.051298,57.3530575 C105.08035,56.1389843 105.922852,55.6764802 106.968717,56.2835168 C118.066503,62.6140414 129.16429,69.1758181 140.291128,75.5063427 C141.404733,76.2363647 142.105157,77.4479366 142.179495,78.7727778 L142.237598,122.537226 C142.208546,123.722393 141.366044,124.213804 140.32018,123.606767 C129.222393,117.276243 118.124607,110.714466 106.997768,104.383941 C105.884164,103.653919 105.183739,102.442347 105.109402,101.117506 L105.051298,57.3530575 Z" id="Path" fill="url(#linearGradient-22)" opacity="0.5"></path><path d="M463.899095,393.279609 C463.899095,392.558474 464.391054,392.27002 465.027706,392.64501 C471.712559,396.452602 478.397411,400.404421 485.082263,404.240859 C485.745983,404.682338 486.163737,405.40838 486.210875,406.202346 L486.210875,432.567037 C486.210875,433.288172 485.689977,433.576626 485.053325,433.230482 C478.397411,429.394044 471.712559,425.442225 465.027706,421.634632 C464.357043,421.19966 463.937092,420.4698 463.899095,419.673146 L463.899095,393.279609 Z" id="Path" fill="url(#linearGradient-23)" opacity="0.5"></path><path d="M354.199509,94.553725 C354.199509,93.3400612 355.04267,92.8488163 356.089353,93.4556482 C367.22489,99.812935 378.302279,106.372499 389.437817,112.700889 C390.555786,113.427392 391.257868,114.640473 391.32766,115.966223 L391.385809,159.715914 C391.385809,160.900681 390.513574,161.391926 389.466892,160.785094 C378.360428,154.456704 367.253965,147.89714 356.147502,141.539854 C355.034018,140.822576 354.331886,139.620146 354.257658,138.303417 L354.199509,94.553725 Z" id="Path" fill="url(#linearGradient-24)" opacity="0.5"></path><path d="M327.239442,48.080926 C327.239442,46.8672621 328.111677,46.3760172 329.158359,46.9828492 C340.264823,53.3401359 351.371286,59.8997 362.47775,66.22809 C363.524432,66.8349219 364.396667,68.2797598 364.367593,69.4934237 L364.425742,113.243115 C364.425742,114.427882 363.582581,114.919127 362.535899,114.312295 C351.400361,107.983905 340.322972,101.424341 329.187434,95.0670545 C328.140751,94.4891193 327.297591,93.0153847 327.297591,91.8306176 L327.239442,48.080926 L327.239442,48.080926 Z M330.117818,53.1089619 L330.175967,90.0968121 C330.227152,91.2161643 330.823856,92.2405336 331.775065,92.8420041 C341.166133,98.2168011 350.5572,103.764979 359.948267,109.110879 C360.849577,109.631021 361.547365,109.197569 361.547365,108.186183 L361.547365,71.2272291 C361.477514,70.1056551 360.886444,69.0802773 359.948267,68.4531404 C350.528125,63.1072401 341.166133,57.5590626 331.775065,52.1842656 C330.844681,51.6930207 330.117818,52.0975753 330.117818,53.1089619 Z" id="Shape" fill="url(#linearGradient-25)" opacity="0.5"></path><path d="M79.9505454,288.781843 C79.9795972,287.597076 80.8220993,287.105831 81.867964,287.712663 C92.9657505,294.041053 104.063537,300.600617 115.190375,306.957904 C116.30747,307.684407 117.009004,308.897488 117.078742,310.223238 L117.136846,353.944033 C117.107794,355.157696 116.265292,355.648941 115.219427,355.042109 C104.121641,348.684823 93.0238541,342.125259 81.8970158,335.796869 C80.7799205,335.070366 80.0783865,333.857285 80.008649,332.531535 L79.9505454,288.781843 Z M82.8266733,293.838776 L82.8847769,330.797729 C82.9362934,331.924669 83.5312826,332.957653 84.4826257,333.571818 C93.8663562,338.917718 103.250087,344.465896 112.633817,349.840693 C113.534423,350.331938 114.260718,349.927383 114.260718,348.915997 L114.202614,311.928146 C114.132818,310.814316 113.54113,309.797764 112.604765,309.182954 C103.221035,303.808157 93.8373044,298.288877 84.4535739,292.91408 C83.5529682,292.393938 82.8266733,292.827389 82.8266733,293.838776 L82.8266733,293.838776 Z" id="Shape" fill="url(#linearGradient-26)" opacity="0.5"></path><path d="M51.7782801,207.466736 C45.3174397,202.054585 41.4696503,190.852014 43.1638263,182.413713 C44.8580022,173.975413 51.4337019,171.531216 57.8945422,176.914269 C64.3553826,182.297323 68.2318868,193.528992 66.5377109,201.938195 C64.843535,210.347397 58.2391204,212.84979 51.7782801,207.466736 Z" id="Path" fill="url(#linearGradient-27)" opacity="0.5"></path><path d="M395.620751,470.090296 C385.929397,462.224659 380.161431,445.857193 382.679426,433.509299 C385.197422,421.161406 395.123007,417.604518 404.814361,425.470156 C414.505714,433.335793 420.27368,449.732176 417.755685,462.051152 C415.23769,474.370128 405.312104,477.984851 395.620751,470.090296 Z M396.674795,464.94293 C404.140944,471.015665 411.753487,468.239558 413.715181,458.754525 C415.676875,449.269492 411.197186,436.690256 403.760316,430.617521 C396.323447,424.544786 388.681624,427.320894 386.71993,436.805927 C384.758236,446.29096 389.237926,458.899114 396.674795,464.94293 L396.674795,464.94293 Z" id="Shape" fill="url(#linearGradient-28)" opacity="0.5"></path></g></g></g></svg> 